<?xml version="1.0" encoding="UTF-8"?>
<svg width="18px" height="22px" viewBox="0 0 18 22" version="1.1" xmlns="http://www.w3.org/2000/svg" xmlns:xlink="http://www.w3.org/1999/xlink">
    <!-- Generator: Sketch 61.2 (89653) - https://sketch.com -->
    <title>apple</title>
    <desc>Created with Sketch.</desc>
    <g id="Page-1" stroke="none" stroke-width="1" fill="none" fill-rule="evenodd">
        <g id="Login-en备份" transform="translate(-644.000000, -613.000000)" fill="#000000" fill-rule="nonzero">
            <g id="body" transform="translate(520.000000, 169.000000)">
                <path d="M137.030237,449.303565 L137.314806,449.32043 C138.03162,449.349943 140.045674,449.609302 141.338443,451.49949 C141.235594,451.567013 138.935351,452.903604 138.963075,455.690368 C138.993036,459.017761 141.882202,460.124507 141.914845,460.139711 C141.888909,460.21573 141.452024,461.717774 140.390889,463.269007 C139.474191,464.609623 138.523954,465.943085 137.02504,465.970362 C135.55072,465.998534 135.077614,465.097039 133.392677,465.097039 C131.70774,465.097039 131.181868,465.943532 129.788039,465.998534 C128.341891,466.053536 127.239616,464.551044 126.315316,463.215794 C124.424681,460.484032 122.980768,455.495849 124.921039,452.13 C125.882455,450.457584 127.604507,449.398685 129.472784,449.37096 C130.892996,449.345919 132.235401,450.329246 133.102464,450.329246 C133.971315,450.329246 135.602145,449.146481 137.314806,449.32043 Z M137.338059,444 C137.479365,445.28785 136.959753,446.581513 136.192856,447.512521 C135.423277,448.441741 134.164046,449.165709 132.929409,449.070015 C132.762615,447.805418 133.385075,446.491185 134.09697,445.665709 C134.891591,444.735595 136.231313,444.044717 137.338059,444 Z" id="apple"></path>
            </g>
        </g>
    </g>
</svg>